<svg height="64" viewBox="0 0 64 64" width="64" xmlns="http://www.w3.org/2000/svg"><g fill="none" fill-rule="evenodd" stroke-linejoin="round" stroke-width="2"><path d="m26.883 41.006h-.281l-.139.245-6.675 12-.416.725.667-.023 31.663.047h.283l.14-.245 6.894-12.029.418-.726h-.84z" fill="#5ea7ff" stroke="#5ea7ff"/><path d="m44.19 36.757.141.243.282-.001 13.759.001.839-.004-.42-.721-15.851-27.034-.141-.241h-.281l-13.89.055-.839.005.42.723z" fill="#fcc24c" stroke="#fcc24c"/><path d="m31.333 24.576-.143-.243-6.25-12.252-.421-.722-.42.724-15.422 27.166-.14.243.142.243 6.994 11.975.422.723.419-.725 14.677-26.888z" fill="#22ba8e" stroke="#22ba8e"/></g></svg>